<?xml version="1.0" encoding="utf-8"?>
<svg version="1.1" xmlns:xlink="http://www.w3.org/1999/xlink" width="16px" height="16px" xmlns="http://www.w3.org/2000/svg">
  <g transform="matrix(1 0 0 1 -189 -1200 )">
    <path d="M 190 1203  A 2 2 0 0 1 192 1201 L 202 1201  A 2 2 0 0 1 204 1203 L 204 1213  A 2 2 0 0 1 202 1215 L 192 1215  A 2 2 0 0 1 190 1213 L 190 1203  Z " fill-rule="nonzero" fill="#ffffff" stroke="none" fill-opacity="0" />
    <path d="M 189.5 1203  A 2.5 2.5 0 0 1 192 1200.5 L 202 1200.5  A 2.5 2.5 0 0 1 204.5 1203 L 204.5 1213  A 2.5 2.5 0 0 1 202 1215.5 L 192 1215.5  A 2.5 2.5 0 0 1 189.5 1213 L 189.5 1203  Z " stroke-width="1" stroke="#ffffff" fill="none" stroke-opacity="0.6" />
  </g>
</svg>