<?xml version="1.0" encoding="utf-8"?>
<svg version="1.1" xmlns:xlink="http://www.w3.org/1999/xlink" width="16px" height="16px" xmlns="http://www.w3.org/2000/svg">
  <g transform="matrix(1 0 0 1 -189 -1296 )">
    <path d="M 197 1296  C 201.48 1296  205 1299.52  205 1304  C 205 1308.48  201.48 1312  197 1312  C 192.52 1312  189 1308.48  189 1304  C 189 1299.52  192.52 1296  197 1296  Z " fill-rule="nonzero" fill="#ffffff" stroke="none" fill-opacity="0" />
    <path d="M 197 1296.5  C 201.2 1296.5  204.5 1299.8  204.5 1304  C 204.5 1308.2  201.2 1311.5  197 1311.5  C 192.8 1311.5  189.5 1308.2  189.5 1304  C 189.5 1299.8  192.8 1296.5  197 1296.5  Z " stroke-width="1" stroke="#ffffff" fill="none" />
  </g>
</svg>