<?xml version="1.0" encoding="utf-8"?>
<svg version="1.1" xmlns:xlink="http://www.w3.org/1999/xlink" width="16px" height="16px" xmlns="http://www.w3.org/2000/svg">
  <g transform="matrix(1 0 0 1 -189 -1296 )">
    <path d="M 197 1296.5  C 201.2 1296.5  204.5 1299.8  204.5 1304  C 204.5 1308.2  201.2 1311.5  197 1311.5  C 192.8 1311.5  189.5 1308.2  189.5 1304  C 189.5 1299.8  192.8 1296.5  197 1296.5  Z " fill-rule="nonzero" fill="#ffffff" stroke="none" fill-opacity="0" />
    <path d="M 197 1296.5  C 201.2 1296.5  204.5 1299.8  204.5 1304  C 204.5 1308.2  201.2 1311.5  197 1311.5  C 192.8 1311.5  189.5 1308.2  189.5 1304  C 189.5 1299.8  192.8 1296.5  197 1296.5  Z " stroke-width="1" stroke="#ffffff" fill="none" stroke-opacity="0.6" />
  </g>
</svg>